<svg width="18" height="18" viewBox="0 0 18 18" fill="none" xmlns="http://www.w3.org/2000/svg">
<path d="M14.206 9.96272C14.0302 9.55842 13.7595 9.20334 13.2181 8.90452C12.9383 8.74631 12.6377 8.62798 12.3251 8.55295C12.5354 8.45524 12.7289 8.3247 12.8982 8.16624C13.1471 7.94374 13.3357 7.66198 13.4466 7.3471C13.5487 7.0271 13.5904 6.69093 13.5696 6.35569C13.531 5.76506 13.415 5.19202 13.1056 4.78069C12.7962 4.36936 12.3603 4.05295 11.7837 3.83147C11.3407 3.66272 10.8872 3.55725 10.1841 3.51858V1.27209H8.77785V3.52209H7.65285V1.27209H6.21145V3.52209H3.15039V5.20959H4.1302C4.43605 5.20959 4.64348 5.23772 4.74895 5.29045C4.84708 5.33244 4.92777 5.40692 4.97746 5.50139C5.02316 5.58928 5.04426 5.7967 5.04426 6.11663V12.2057C5.04426 12.5221 5.02316 12.726 4.97746 12.8174C4.93176 12.9088 4.90715 12.9897 4.79816 13.0389C4.68918 13.0881 4.68566 13.0846 4.38332 13.0846H3.4552L3.15039 14.7721H6.20898V17.0221H7.65039V14.7721H8.77539V17.0221H10.1816V14.758C11.0957 14.7123 11.7461 14.5928 12.2699 14.3959C12.9484 14.1428 13.4688 13.7737 13.8414 13.2885C14.2141 12.8033 14.3336 12.0615 14.3663 11.4885C14.3898 10.9787 14.3652 10.3213 14.206 9.96272ZM7.65039 5.42053H8.77539V8.02209H7.65039V5.42053ZM7.65039 12.8737V9.70959H8.77539V12.8737H7.65039ZM10.1816 5.55764C10.3926 5.64553 10.5297 5.82131 10.6668 6.00413C10.818 6.20452 10.8953 6.4717 10.8953 6.75647C10.8953 7.03069 10.7934 7.26624 10.6316 7.47717C10.498 7.64944 10.3926 7.76897 10.1816 7.86741V5.55764ZM11.1941 12.1213C10.9199 12.3639 10.7617 12.4764 10.4172 12.6065C10.3401 12.6336 10.2615 12.6559 10.1816 12.6733V9.76233C10.3192 9.78268 10.453 9.82295 10.5789 9.88186C10.8531 9.99788 11.1133 10.1244 11.275 10.3459C11.4543 10.6003 11.5524 10.9031 11.5563 11.2143C11.5552 11.5975 11.4568 11.8893 11.1931 12.1213H11.1941Z" fill="#808080"/>
</svg>
